<svg width="99" height="637" viewBox="0 0 99 637" fill="none" xmlns="http://www.w3.org/2000/svg">
<path d="M2.05569 636.739L2.05569 603.619C2.05569 590.717 3.98228 581.149 7.83547 574.915C11.6454 568.637 17.5983 565.499 25.6944 565.499C31.0196 565.499 35.5655 566.862 39.3321 569.59C43.0987 572.317 45.5231 575.911 46.6055 580.37L47.2549 580.37C48.8135 574.482 51.4112 570.218 55.0479 567.577C58.6846 564.936 63.4037 563.615 69.2051 563.615C77.8207 563.615 84.6179 566.862 89.5967 573.356C94.5323 579.807 97 588.618 97 599.788L97 636.739L2.05569 636.739ZM38.4878 611.087L38.4878 603.359C38.4878 599.679 37.7302 596.844 36.2149 594.852C34.6996 592.817 32.4483 591.8 29.461 591.8C24.1358 591.8 21.4732 595.826 21.4732 603.879L21.4732 611.087L38.4878 611.087ZM57.2559 611.087L77.1929 611.087L77.1929 602.061C77.1929 594.051 73.8159 590.046 67.062 590.046C63.9016 590.046 61.4771 591.129 59.7886 593.293C58.1001 595.415 57.2559 598.51 57.2559 602.58L57.2559 611.087ZM2.05568 466.398L59.2041 466.398C71.6296 466.398 81.2626 469.926 88.103 476.983C94.9002 483.997 98.2988 494.128 98.2988 507.376C98.2988 520.321 94.9868 530.279 88.3628 537.249C81.7388 544.176 72.2141 547.64 59.7886 547.64L2.05569 547.64L2.05569 521.858L57.7754 521.858C64.486 521.858 69.3566 520.602 72.3872 518.091C75.4178 515.58 76.9331 511.879 76.9331 506.986C76.9331 501.748 75.4395 497.959 72.4522 495.622C69.4216 493.24 64.486 492.05 57.6455 492.05L2.05568 492.05L2.05568 466.398ZM68.166 384.377C74.0541 384.377 79.2927 385.871 83.8819 388.858C88.4277 391.845 91.9779 396.153 94.5322 401.781C97.0433 407.409 98.2988 414.012 98.2988 421.588C98.2988 427.909 97.8659 433.213 97 437.499C96.0908 441.785 94.5322 446.244 92.3242 450.877L69.4649 450.877C71.9759 445.985 73.9458 440.898 75.3745 435.616C76.7599 430.334 77.4527 425.485 77.4527 421.069C77.4527 417.259 76.8032 414.466 75.5044 412.691C74.1623 410.916 72.4522 410.029 70.374 410.029C69.0752 410.029 67.9496 410.397 66.9971 411.133C66.0013 411.826 65.0056 412.973 64.0098 414.575C63.014 416.133 60.9792 420.333 57.9053 427.173C55.0912 433.364 52.3636 438.019 49.7227 441.136C47.0817 444.21 44.0511 446.504 40.6309 448.02C37.2106 449.492 33.1626 450.228 28.4868 450.228C19.7414 450.228 12.9225 447.045 8.03029 440.681C3.13804 434.317 0.691912 425.571 0.691911 414.445C0.691911 404.617 2.96486 394.594 7.51076 384.377L27.3179 392.235C23.2482 401.11 21.2134 408.773 21.2134 415.224C21.2134 418.558 21.7979 420.982 22.9668 422.498C24.1358 424.013 25.5861 424.771 27.3179 424.771C29.1795 424.771 30.8464 423.818 32.3184 421.913C33.7904 419.965 36.4746 414.726 40.3711 406.197C44.0511 398.015 48.0125 392.343 52.2554 389.183C56.4549 385.979 61.7585 384.377 68.166 384.377ZM97 369.7L2.05568 369.7L2.05568 343.918L97 343.918L97 369.7ZM97 232.934L97 266.573L30.1104 301.252L30.1104 301.836C40.6309 301.014 48.662 300.603 54.2036 300.603L97 300.603L97 323.332L2.05568 323.332L2.05568 289.822L68.0361 255.273L68.0361 254.884C58.4681 255.49 50.7834 255.793 44.9819 255.793L2.05567 255.793L2.05567 232.934L97 232.934ZM97 156.043L97 212.412L2.05567 212.412L2.05567 156.043L22.6421 156.043L22.6421 186.76L37.5786 186.76L37.5786 158.316L58.165 158.316L58.165 186.76L76.0889 186.76L76.0889 156.043L97 156.043ZM68.166 77.334C74.054 77.334 79.2926 78.8276 83.8818 81.8149C88.4277 84.8022 91.9779 89.11 94.5322 94.7383C97.0433 100.367 98.2988 106.969 98.2988 114.545C98.2988 120.866 97.8659 126.17 97 130.456C96.0908 134.742 94.5322 139.201 92.3242 143.834L69.4648 143.834C71.9759 138.942 73.9458 133.855 75.3745 128.573C76.7599 123.291 77.4526 118.442 77.4526 114.026C77.4526 110.216 76.8032 107.423 75.5044 105.648C74.1623 103.873 72.4522 102.986 70.374 102.986C69.0752 102.986 67.9495 103.354 66.9971 104.09C66.0013 104.783 65.0055 105.93 64.0098 107.532C63.014 109.09 60.9792 113.29 57.9053 120.13C55.0911 126.321 52.3636 130.976 49.7227 134.093C47.0817 137.167 44.0511 139.461 40.6309 140.977C37.2106 142.449 33.1626 143.185 28.4868 143.185C19.7414 143.185 12.9225 140.002 8.03028 133.638C3.13802 127.274 0.691898 118.528 0.691898 107.402C0.691897 97.5741 2.96485 87.5514 7.51074 77.334L27.3179 85.1919C23.2482 94.0672 21.2134 101.73 21.2134 108.181C21.2134 111.515 21.7979 113.939 22.9668 115.455C24.1357 116.97 25.5861 117.728 27.3179 117.728C29.1795 117.728 30.8464 116.775 32.3184 114.87C33.7904 112.922 36.4746 107.683 40.3711 99.1543C44.0511 90.9717 48.0125 85.3001 52.2554 82.1396C56.4549 78.9359 61.7585 77.334 68.166 77.334ZM68.166 0.573237C74.054 0.573237 79.2926 2.06689 83.8818 5.05419C88.4277 8.0415 91.9779 12.3493 94.5322 17.9775C97.0433 23.6058 98.2988 30.2082 98.2988 37.7847C98.2988 44.1056 97.8659 49.4092 97 53.6953C96.0908 57.9814 94.5322 62.4407 92.3242 67.0732L69.4648 67.0732C71.9759 62.181 73.9458 57.0939 75.3745 51.812C76.7599 46.5301 77.4526 41.6811 77.4526 37.2651C77.4526 33.4552 76.8032 30.6628 75.5044 28.8877C74.1623 27.1126 72.4521 26.2251 70.374 26.2251C69.0752 26.2251 67.9495 26.5931 66.9971 27.3291C66.0013 28.0218 65.0055 29.1691 64.0098 30.771C63.014 32.3296 60.9792 36.5291 57.9053 43.3696C55.0911 49.5607 52.3636 54.2148 49.7227 57.332C47.0817 60.4059 44.0511 62.7005 40.6309 64.2158C37.2106 65.6878 33.1626 66.4238 28.4868 66.4238C19.7414 66.4238 12.9225 63.2417 8.03027 56.8774C3.13802 50.5132 0.691895 41.7677 0.691894 30.6411C0.691894 20.8133 2.96484 10.7907 7.51074 0.57324L27.3179 8.43115C23.2482 17.3065 21.2134 24.9696 21.2134 31.4204C21.2134 34.7541 21.7979 37.1785 22.9668 38.6938C24.1357 40.2091 25.5861 40.9668 27.3179 40.9668C29.1795 40.9668 30.8464 40.0143 32.3184 38.1094C33.7904 36.1611 36.4746 30.9225 40.3711 22.3936C44.0511 14.2109 48.0125 8.53938 52.2554 5.3789C56.4549 2.17513 61.7585 0.573238 68.166 0.573237Z" fill="white" fill-opacity="0.4"/>
</svg>
