<svg width="100" height="55" viewBox="0 0 100 55" fill="none" xmlns="http://www.w3.org/2000/svg">
<circle cx="5" cy="5.00034" r="5" fill="#C4C4C4" fill-opacity="0.5"/>
<circle cx="20" cy="5.00034" r="5" fill="#C4C4C4" fill-opacity="0.5"/>
<circle cx="35" cy="5.00034" r="5" fill="#C4C4C4" fill-opacity="0.5"/>
<circle cx="50" cy="5.00034" r="5" fill="#C4C4C4" fill-opacity="0.5"/>
<circle cx="65" cy="5.00034" r="5" fill="#C4C4C4" fill-opacity="0.5"/>
<circle cx="80" cy="5.00034" r="5" fill="#C4C4C4" fill-opacity="0.5"/>
<circle cx="95" cy="5.00034" r="5" fill="#C4C4C4" fill-opacity="0.5"/>
<circle cx="5" cy="20.0003" r="5" fill="#C4C4C4" fill-opacity="0.5"/>
<circle cx="20" cy="20.0003" r="5" fill="#C4C4C4" fill-opacity="0.5"/>
<circle cx="35" cy="20.0003" r="5" fill="#C4C4C4" fill-opacity="0.5"/>
<circle cx="50" cy="20.0003" r="5" fill="#C4C4C4" fill-opacity="0.5"/>
<circle cx="65" cy="20.0003" r="5" fill="#C4C4C4" fill-opacity="0.5"/>
<circle cx="80" cy="20.0003" r="5" fill="#C4C4C4" fill-opacity="0.5"/>
<circle cx="95" cy="20.0003" r="5" fill="#C4C4C4" fill-opacity="0.5"/>
<circle cx="5" cy="35.0003" r="5" fill="#C4C4C4" fill-opacity="0.5"/>
<circle cx="20" cy="35.0003" r="5" fill="#C4C4C4" fill-opacity="0.5"/>
<circle cx="35" cy="35.0003" r="5" fill="#C4C4C4" fill-opacity="0.5"/>
<circle cx="50" cy="35.0003" r="5" fill="#C4C4C4" fill-opacity="0.5"/>
<circle cx="65" cy="35.0003" r="5" fill="#C4C4C4" fill-opacity="0.5"/>
<circle cx="80" cy="35.0003" r="5" fill="#C4C4C4" fill-opacity="0.5"/>
<circle cx="95" cy="35.0003" r="5" fill="#C4C4C4" fill-opacity="0.5"/>
<circle cx="5" cy="50.0003" r="5" fill="#C4C4C4" fill-opacity="0.5"/>
<circle cx="20" cy="50.0003" r="5" fill="#C4C4C4" fill-opacity="0.5"/>
<circle cx="35" cy="50.0003" r="5" fill="#C4C4C4" fill-opacity="0.5"/>
<circle cx="50" cy="50.0003" r="5" fill="#C4C4C4" fill-opacity="0.5"/>
<circle cx="65" cy="50.0003" r="5" fill="#C4C4C4" fill-opacity="0.5"/>
<circle cx="80" cy="50.0003" r="5" fill="#C4C4C4" fill-opacity="0.5"/>
<circle cx="95" cy="50.0003" r="5" fill="#C4C4C4" fill-opacity="0.5"/>
</svg>
