<svg width="99" height="757" viewBox="0 0 99 757" fill="none" xmlns="http://www.w3.org/2000/svg">
<path d="M97 731.477L97 756.739L2.05566 756.739L2.05566 700.63L22.6421 700.63L22.6421 731.477L40.7607 731.477L40.7607 703.033L61.3472 703.033L61.3472 731.477L97 731.477ZM49.3979 596.204C65.3735 596.204 77.5176 600.122 85.8301 607.958C94.1426 615.795 98.2988 627.268 98.2988 642.377C98.2988 657.271 94.1209 668.7 85.7651 676.666C77.4093 684.589 65.2436 688.551 49.2681 688.551C33.4657 688.551 21.4082 684.611 13.0957 676.731C4.7399 668.809 0.562007 657.314 0.562006 642.248C0.562006 627.138 4.69661 615.687 12.9658 607.894C21.235 600.101 33.3791 596.204 49.3979 596.204ZM49.3979 661.535C67.7547 661.535 76.9331 655.149 76.9331 642.377C76.9331 635.883 74.7034 631.078 70.2441 627.96C65.7848 624.8 58.8361 623.22 49.3979 623.22C39.9165 623.22 32.9245 624.822 28.4219 628.025C23.876 631.186 21.603 635.927 21.603 642.248C21.603 655.106 30.868 661.535 49.3979 661.535ZM62.4512 553.408L97 553.408L97 579.06L2.05566 579.06L2.05565 547.953C2.05565 522.149 11.4072 509.248 30.1103 509.248C41.1071 509.248 49.6144 514.616 55.6323 525.353L97 497.688L97 526.782L62.4512 546.914L62.4512 553.408ZM43.1636 553.408L43.1636 548.602C43.1636 539.64 39.2021 535.159 31.2793 535.159C24.7419 535.159 21.4731 539.554 21.4731 548.342L21.4731 553.408L43.1636 553.408ZM97 351.959L97 382.287L55.6323 391.379C53.9005 391.812 50.4586 392.505 45.3066 393.457C40.1546 394.366 35.8468 395.037 32.3833 395.47C35.1974 395.817 38.7042 396.379 42.9038 397.159C47.06 397.938 50.8916 398.717 54.3984 399.497C57.9053 400.233 72.1058 403.371 97 408.913L97 439.241L2.05565 462.75L2.05565 438.007L49.6577 427.681C60.1782 425.343 68.5556 423.741 74.79 422.875C70.374 422.313 64.3778 421.317 56.8013 419.888C49.2248 418.416 42.9471 417.052 37.9682 415.797L2.05565 407.419L2.05565 383.651L37.9682 375.533C43.7264 374.148 50.3721 372.741 57.9053 371.312C65.4385 369.883 71.0667 368.931 74.79 368.455C69.9844 367.892 61.6502 366.355 49.7876 363.844L2.05565 353.323L2.05564 328.581L97 351.959ZM97 234.935L97 260.717L58.2949 260.717L58.2949 290.525L97 290.525L97 316.307L2.05564 316.307L2.05564 290.525L37.2539 290.525L37.2539 260.717L2.05564 260.717L2.05564 234.935L97 234.935ZM49.3979 125.509C65.3735 125.509 77.5176 129.427 85.8301 137.263C94.1426 145.099 98.2988 156.572 98.2988 171.682C98.2988 186.575 94.1209 198.005 85.7651 205.971C77.4093 213.894 65.2436 217.855 49.268 217.855C33.4656 217.855 21.4082 213.916 13.0957 206.036C4.73988 198.113 0.561986 186.619 0.561986 171.552C0.561985 156.443 4.69659 144.991 12.9658 137.198C21.235 129.405 33.379 125.509 49.3979 125.509ZM49.3979 190.84C67.7547 190.84 76.9331 184.454 76.9331 171.682C76.9331 165.188 74.7034 160.382 70.2441 157.265C65.7848 154.105 58.8361 152.524 49.3979 152.524C39.9165 152.524 32.9245 154.126 28.4218 157.33C23.876 160.491 21.603 165.231 21.603 171.552C21.603 184.411 30.868 190.84 49.3979 190.84ZM97 66.9966L28.6167 86.4141L28.6167 86.9985C40.2628 86.0894 49.3113 85.6348 55.7622 85.6348L97 85.6348L97 108.364L2.05564 108.364L2.05563 74.2051L69.4648 54.3979L69.4648 53.8784L2.05563 34.4609L2.05563 0.236814L97 0.23681L97 23.8105L55.3725 23.8105C53.2078 23.8105 50.805 23.7889 48.164 23.7456C45.5231 23.659 39.0506 23.356 28.7465 22.8364L28.7465 23.4209L97 42.5786L97 66.9966Z" fill="white" fill-opacity="0.4"/>
</svg>
