<svg width="99" height="377" viewBox="0 0 99 377" fill="none" xmlns="http://www.w3.org/2000/svg">
<path d="M97 351.477L97 376.739L2.05566 376.739L2.05566 320.63L22.6421 320.63L22.6421 351.477L40.7607 351.477L40.7607 323.033L61.3472 323.033L61.3472 351.477L97 351.477ZM49.3979 216.204C65.3735 216.204 77.5176 220.122 85.8301 227.958C94.1426 235.795 98.2988 247.268 98.2988 262.377C98.2988 277.271 94.1209 288.7 85.7651 296.666C77.4093 304.589 65.2436 308.551 49.2681 308.551C33.4657 308.551 21.4082 304.611 13.0957 296.731C4.7399 288.809 0.562007 277.314 0.562006 262.248C0.562006 247.138 4.69661 235.687 12.9658 227.894C21.235 220.101 33.3791 216.204 49.3979 216.204ZM49.3979 281.535C67.7547 281.535 76.9331 275.149 76.9331 262.377C76.9331 255.883 74.7034 251.078 70.2441 247.96C65.7848 244.8 58.8361 243.22 49.3979 243.22C39.9165 243.22 32.9245 244.822 28.4219 248.025C23.876 251.186 21.603 255.927 21.603 262.248C21.603 275.106 30.868 281.535 49.3979 281.535ZM62.4512 173.408L97 173.408L97 199.06L2.05566 199.06L2.05565 167.953C2.05565 142.149 11.4072 129.248 30.1103 129.248C41.1071 129.248 49.6144 134.616 55.6323 145.353L97 117.688L97 146.782L62.4512 166.914L62.4512 173.408ZM43.1636 173.408L43.1636 168.602C43.1636 159.64 39.2021 155.159 31.2793 155.159C24.7419 155.159 21.4731 159.554 21.4731 168.342L21.4731 173.408L43.1636 173.408ZM97 67.6831L28.6167 87.1006L28.6167 87.6851C40.2628 86.7759 49.3113 86.3213 55.7622 86.3213L97 86.3213L97 109.051L2.05565 109.051L2.05565 74.8916L69.4648 55.0845L69.4648 54.5649L2.05565 35.1475L2.05565 0.923338L97 0.923334L97 24.4971L55.3725 24.4971C53.2078 24.4971 50.805 24.4754 48.164 24.4321C45.5231 24.3455 39.0506 24.0425 28.7466 23.5229L28.7466 24.1074L97 43.2651L97 67.6831Z" fill="#767673"/>
</svg>
