<svg width="32" height="33" viewBox="0 0 32 33" fill="none" xmlns="http://www.w3.org/2000/svg">
<path d="M15.75 12.7734C13.6406 12.7734 11.9531 14.4609 11.9531 16.5C11.9531 18.6094 13.6406 20.2969 15.75 20.2969C17.7891 20.2969 19.4766 18.6094 19.4766 16.5C19.4766 14.4609 17.7891 12.7734 15.75 12.7734ZM24.4688 9.89062C24.1172 9.04688 23.2031 8.0625 22.3594 7.78125C20.8828 7.14844 17.3672 7.28906 15.75 7.28906C14.0625 7.28906 10.5469 7.14844 9.07031 7.78125C8.22656 8.0625 7.3125 9.04688 6.96094 9.89062C6.39844 11.3672 6.46875 14.8828 6.46875 16.5C6.46875 18.1875 6.39844 21.7031 6.96094 23.1797C7.3125 24.0234 8.22656 24.9375 9.07031 25.2891C10.5469 25.9219 14.0625 25.7812 15.75 25.7812C17.3672 25.7812 20.8828 25.9219 22.3594 25.2891C23.2031 24.9375 24.1875 24.0234 24.4688 23.1797C25.1016 21.7031 24.9609 18.1875 24.9609 16.5C24.9609 14.8828 25.1016 11.3672 24.4688 9.89062ZM15.75 22.2656C12.5156 22.2656 9.98438 19.7344 9.98438 16.5C9.98438 13.3359 12.5156 10.7344 15.75 10.7344C18.9141 10.7344 21.5156 13.3359 21.5156 16.5V16.5703C21.5156 19.7344 18.9141 22.2656 15.75 22.2656ZM21.7266 11.8594C20.9531 11.8594 20.3906 11.2969 20.3906 10.5234C20.3906 9.75 20.9531 9.1875 21.7266 9.1875C22.4297 9.1875 23.0625 9.75 23.0625 10.5234C23.0625 11.2969 22.4297 11.8594 21.7266 11.8594ZM28.125 0.75H3.375C1.47656 0.75 0 2.29688 0 4.125V28.875C0 30.7734 1.47656 32.25 3.375 32.25H28.125C29.9531 32.25 31.5 30.7734 31.5 28.875V4.125C31.5 2.29688 29.9531 0.75 28.125 0.75ZM26.8594 21.1406C26.7891 22.9688 26.3672 24.5859 25.1016 25.8516C23.7656 27.1875 22.1484 27.6094 20.3906 27.6797C18.4922 27.8203 12.9375 27.8203 11.1094 27.6797C9.28125 27.6094 7.66406 27.1875 6.39844 25.8516C5.0625 24.5859 4.64062 22.9688 4.57031 21.1406C4.42969 19.3125 4.42969 13.7578 4.57031 11.8594C4.64062 10.1016 5.0625 8.48438 6.39844 7.14844C7.66406 5.88281 9.28125 5.46094 11.1094 5.39062C12.9375 5.25 18.4922 5.25 20.3906 5.39062C22.1484 5.46094 23.7656 5.88281 25.1016 7.21875C26.3672 8.48438 26.7891 10.1016 26.8594 11.9297C27 13.7578 27 19.3125 26.8594 21.1406Z" fill="#FCD945"/>
</svg>
