<svg width="22" height="17" viewBox="0 0 22 17" fill="none" xmlns="http://www.w3.org/2000/svg">
<path d="M21.5703 5.95703C21.6562 5.87109 21.7422 5.85677 21.8281 5.91406C21.9427 5.97135 22 6.05729 22 6.17188V14.9375C22 15.5104 21.7995 15.9974 21.3984 16.3984C20.9974 16.7995 20.5104 17 19.9375 17H2.0625C1.48958 17 1.0026 16.7995 0.601562 16.3984C0.200521 15.9974 0 15.5104 0 14.9375V6.17188C0 6.05729 0.0429688 5.98568 0.128906 5.95703C0.24349 5.89974 0.34375 5.89974 0.429688 5.95703C1.375 6.67318 3.58073 8.29167 7.04688 10.8125C7.10417 10.8698 7.29036 11.0273 7.60547 11.2852C7.94922 11.543 8.22135 11.7435 8.42188 11.8867C8.6224 12.0013 8.88021 12.1589 9.19531 12.3594C9.51042 12.5312 9.8112 12.6602 10.0977 12.7461C10.4128 12.832 10.7135 12.875 11 12.875C11.2578 12.875 11.5156 12.8464 11.7734 12.7891C12.0312 12.7031 12.2747 12.6172 12.5039 12.5312C12.7331 12.4167 12.9766 12.2734 13.2344 12.1016C13.4922 11.9297 13.707 11.7865 13.8789 11.6719C14.0508 11.5286 14.2513 11.3711 14.4805 11.1992C14.7096 11.0273 14.8672 10.8984 14.9531 10.8125C18.3333 8.3776 20.5391 6.75911 21.5703 5.95703ZM11 11.5C10.7708 11.5 10.4844 11.4284 10.1406 11.2852C9.82552 11.1133 9.56771 10.9701 9.36719 10.8555C9.16667 10.7122 8.86589 10.4974 8.46484 10.2109C8.09245 9.89583 7.89193 9.73828 7.86328 9.73828C4.36849 7.1888 1.8763 5.34115 0.386719 4.19531C0.128906 3.99479 0 3.72266 0 3.37891V2.5625C0 1.98958 0.200521 1.5026 0.601562 1.10156C1.0026 0.700521 1.48958 0.5 2.0625 0.5H19.9375C20.5104 0.5 20.9974 0.700521 21.3984 1.10156C21.7995 1.5026 22 1.98958 22 2.5625V3.37891C22 3.72266 21.8711 3.99479 21.6133 4.19531C20.2096 5.28385 17.7174 7.13151 14.1367 9.73828C14.1081 9.73828 13.8932 9.89583 13.4922 10.2109C13.1198 10.4974 12.8333 10.7122 12.6328 10.8555C12.4323 10.9701 12.1602 11.1133 11.8164 11.2852C11.5013 11.4284 11.2292 11.5 11 11.5Z" fill="#FCD945"/>
</svg>
