<svg width="103" height="204" viewBox="0 0 103 204" fill="none" xmlns="http://www.w3.org/2000/svg">
<path d="M82.1777 160H4.46777V140.957L30.6152 114.517C38.0859 106.704 42.9688 101.382 45.2637 98.5498C47.5586 95.6689 49.1455 93.2031 50.0244 91.1523C50.9521 89.1016 51.416 86.9531 51.416 84.707C51.416 81.9238 50.5127 79.7266 48.7061 78.1152C46.8994 76.5039 44.3604 75.6982 41.0889 75.6982C37.7197 75.6982 34.3018 76.6748 30.835 78.6279C27.417 80.5322 23.5352 83.3643 19.1895 87.124L3.2959 68.5205C8.81348 63.5889 13.4521 60.0732 17.2119 57.9736C20.9717 55.8252 25.0488 54.1895 29.4434 53.0664C33.8867 51.9434 38.8672 51.3818 44.3848 51.3818C51.3184 51.3818 57.4951 52.6025 62.915 55.0439C68.3838 57.4854 72.6074 60.9766 75.5859 65.5176C78.6133 70.0098 80.127 75.0635 80.127 80.6787C80.127 84.8779 79.5898 88.7598 78.5156 92.3242C77.4902 95.8887 75.8789 99.4043 73.6816 102.871C71.4844 106.289 68.5547 109.902 64.8926 113.711C61.2793 117.52 53.54 124.746 41.6748 135.391V136.123H82.1777V160Z" fill="white"/>
<path d="M85.9375 73C78.4375 73 73.5625 76.0938 69.7188 81.625C69.0625 82.5625 69.25 83.9688 70.2812 84.625L74.3125 87.7188C75.25 88.4688 76.6562 88.2812 77.4062 87.3438C79.75 84.4375 81.5312 82.75 85.1875 82.75C88.0938 82.75 91.6562 84.5312 91.6562 87.3438C91.6562 89.5 89.875 90.5312 87.0625 92.125C83.6875 94 79.2812 96.3438 79.2812 102.156V103C79.2812 104.312 80.3125 105.25 81.5312 105.25H88.375C89.5938 105.25 90.625 104.312 90.625 103V102.531C90.625 98.5 102.344 98.3125 102.344 87.4375C102.344 79.2812 93.8125 73 85.9375 73ZM85 108.062C81.3438 108.062 78.4375 110.969 78.4375 114.531C78.4375 118.094 81.3438 121 85 121C88.5625 121 91.4688 118.094 91.4688 114.531C91.4688 110.969 88.5625 108.062 85 108.062Z" fill="#FCD945"/>
</svg>
