<svg width="114" height="204" viewBox="0 0 114 204" fill="none" xmlns="http://www.w3.org/2000/svg">
<path d="M78.5889 76.1377C78.5889 82.7783 76.5625 88.4912 72.5098 93.2764C68.457 98.0127 62.5977 101.455 54.9316 103.604V104.043C72.8027 106.289 81.7383 114.736 81.7383 129.385C81.7383 139.346 77.7832 147.183 69.873 152.896C62.0117 158.608 51.0742 161.465 37.0605 161.465C31.2988 161.465 25.9521 161.05 21.0205 160.22C16.1377 159.39 10.8398 157.876 5.12695 155.679V131.655C9.81445 134.048 14.5752 135.83 19.4092 137.002C24.292 138.125 28.7842 138.687 32.8857 138.687C39.2334 138.687 43.8477 137.808 46.7285 136.05C49.6582 134.243 51.123 131.436 51.123 127.627C51.123 124.697 50.3662 122.451 48.8525 120.889C47.3389 119.277 44.8975 118.081 41.5283 117.3C38.1592 116.47 33.7646 116.055 28.3447 116.055H21.7529V94.3018H28.4912C43.1885 94.3018 50.5371 90.542 50.5371 83.0225C50.5371 80.1904 49.4385 78.0908 47.2412 76.7236C45.0928 75.3564 42.1875 74.6729 38.5254 74.6729C31.6895 74.6729 24.6094 76.9678 17.2852 81.5576L5.27344 62.2217C10.9375 58.3154 16.7236 55.5322 22.6318 53.8721C28.5889 52.2119 35.4004 51.3818 43.0664 51.3818C54.1504 51.3818 62.8418 53.5791 69.1406 57.9736C75.4395 62.3682 78.5889 68.4229 78.5889 76.1377Z" fill="white"/>
<path d="M113.344 150.344L90.8438 111.25C89.1562 108.344 84.75 108.25 83.0625 111.25L60.5625 150.344C58.875 153.25 61.0312 157 64.5 157H109.406C112.875 157 115.031 153.344 113.344 150.344ZM87 142.188C89.3438 142.188 91.3125 144.156 91.3125 146.5C91.3125 148.938 89.3438 150.812 87 150.812C84.5625 150.812 82.6875 148.938 82.6875 146.5C82.6875 144.156 84.5625 142.188 87 142.188ZM82.875 126.719C82.7812 126.062 83.3438 125.5 84 125.5H89.9062C90.5625 125.5 91.125 126.062 91.0312 126.719L90.375 139.469C90.2812 140.125 89.8125 140.5 89.25 140.5H84.6562C84.0938 140.5 83.625 140.125 83.5312 139.469L82.875 126.719Z" fill="#FCD945"/>
</svg>
