<svg width="124" height="204" viewBox="0 0 124 204" fill="none" xmlns="http://www.w3.org/2000/svg">
<path d="M85.6201 139.272H73.8281V160H45.2637V139.272H2.56348V118.032L47.0947 52.9199H73.8281V117.666H85.6201V139.272ZM45.2637 117.666V105.215C45.2637 102.871 45.3369 99.7217 45.4834 95.7666C45.6787 91.7627 45.8252 89.6631 45.9229 89.4678H45.1172C43.457 93.2275 41.5771 96.7432 39.4775 100.015L27.6123 117.666H45.2637Z" fill="white"/>
<path d="M117.258 79.9142L114.499 75.6621L79.9606 99.5093L77 94.9426L111.539 71.0758L108.825 66.7989L124 65.7852C121.721 70.5633 119.555 75.1042 117.258 79.9142Z" fill="#FCD945"/>
<path d="M114.446 81.988H122.519V115.852H114.446V81.988Z" fill="#FCD945"/>
<path d="M102.454 88.1501H110.577V115.868H102.454V88.1501Z" fill="#FCD945"/>
<path d="M98.6125 96.8518V115.859H90.51V96.8518H98.6125Z" fill="#FCD945"/>
<path d="M78.5281 103.088H86.6515V115.868H78.5281V103.088Z" fill="#FCD945"/>
</svg>
