<svg width="22" height="23" viewBox="0 0 22 23" fill="none" xmlns="http://www.w3.org/2000/svg">
<path d="M21.3555 16.3047C21.7852 16.4766 22 16.7917 22 17.25C22 17.3359 21.9857 17.4076 21.957 17.4648L20.9258 21.9336C20.8971 22.0768 20.8255 22.2057 20.7109 22.3203C20.625 22.4635 20.5104 22.5638 20.3672 22.6211C20.224 22.707 20.0807 22.75 19.9375 22.75C14.4375 22.75 9.73958 20.8021 5.84375 16.9062C1.94792 13.0104 0 8.3125 0 2.8125C0 2.66927 0.0286458 2.52604 0.0859375 2.38281C0.171875 2.23958 0.272135 2.125 0.386719 2.03906C0.529948 1.92448 0.673177 1.85286 0.816406 1.82422L5.28516 0.792969C5.34245 0.764323 5.41406 0.75 5.5 0.75C5.95833 0.75 6.27344 0.964844 6.44531 1.39453L8.50781 6.20703C8.5651 6.32161 8.59375 6.45052 8.59375 6.59375C8.59375 6.90885 8.46484 7.18099 8.20703 7.41016L5.62891 9.51562C6.28776 10.9479 7.36198 12.4089 8.85156 13.8984C10.3411 15.388 11.8021 16.4622 13.2344 17.1211L15.3398 14.543C15.569 14.2852 15.8411 14.1562 16.1562 14.1562C16.2995 14.1562 16.4284 14.1849 16.543 14.2422L21.3555 16.3047Z" fill="#FCD945"/>
</svg>
