<svg width="95" height="95" viewBox="0 0 95 95" fill="none" xmlns="http://www.w3.org/2000/svg">
<rect width="95" height="95" rx="10" fill="#FCD945"/>
<path d="M48 24C41.4375 24 36.1875 29.3438 36.1875 35.8125C36.1875 41.1562 43.875 50.7188 46.7812 54.2812C47.4375 54.9375 48.4688 54.9375 49.125 54.2812C52.0312 50.7188 59.8125 41.1562 59.8125 35.8125C59.8125 29.3438 54.4688 24 48 24ZM48 39.75C45.75 39.75 44.0625 38.0625 44.0625 35.8125C44.0625 33.6562 45.75 31.875 48 31.875C50.1562 31.875 51.9375 33.6562 51.9375 35.8125C51.9375 38.0625 50.1562 39.75 48 39.75ZM22.875 44.25C21.8438 44.7188 21 45.9375 21 47.0625V70.5C21 71.625 22.0312 72.375 22.9688 71.9062L36 66V44.1562C35.1562 42.6562 34.4062 41.25 33.9375 39.8438L22.875 44.25ZM48 57.75C46.5938 57.75 45.375 57.1875 44.5312 56.1562C42.6562 54 40.6875 51.5625 39 48.9375V66L57 72V48.9375C55.2188 51.5625 53.25 54 51.375 56.1562C50.5312 57.1875 49.3125 57.75 48 57.75ZM72.9375 39.1875L60 45V72L73.0312 66.8438C74.0625 66.375 75 65.1562 75 64.0312V40.5938C75 39.4688 73.875 38.7188 72.9375 39.1875Z" fill="#615329"/>
</svg>
