<svg width="55" height="100" viewBox="0 0 55 100" fill="none" xmlns="http://www.w3.org/2000/svg">
<circle cx="50" cy="4.99963" r="5" transform="rotate(90 50 4.99963)" fill="#C4C4C4" fill-opacity="0.5"/>
<circle cx="50" cy="19.9996" r="5" transform="rotate(90 50 19.9996)" fill="#C4C4C4" fill-opacity="0.5"/>
<circle cx="50" cy="34.9996" r="5" transform="rotate(90 50 34.9996)" fill="#C4C4C4" fill-opacity="0.5"/>
<circle cx="50" cy="49.9996" r="5" transform="rotate(90 50 49.9996)" fill="#C4C4C4" fill-opacity="0.5"/>
<circle cx="50" cy="64.9996" r="5" transform="rotate(90 50 64.9996)" fill="#C4C4C4" fill-opacity="0.5"/>
<circle cx="50" cy="79.9996" r="5" transform="rotate(90 50 79.9996)" fill="#C4C4C4" fill-opacity="0.5"/>
<circle cx="50" cy="94.9996" r="5" transform="rotate(90 50 94.9996)" fill="#C4C4C4" fill-opacity="0.5"/>
<circle cx="35" cy="4.99963" r="5" transform="rotate(90 35 4.99963)" fill="#C4C4C4" fill-opacity="0.5"/>
<circle cx="35" cy="19.9996" r="5" transform="rotate(90 35 19.9996)" fill="#C4C4C4" fill-opacity="0.5"/>
<circle cx="35" cy="34.9996" r="5" transform="rotate(90 35 34.9996)" fill="#C4C4C4" fill-opacity="0.5"/>
<circle cx="35" cy="49.9996" r="5" transform="rotate(90 35 49.9996)" fill="#C4C4C4" fill-opacity="0.5"/>
<circle cx="35" cy="64.9996" r="5" transform="rotate(90 35 64.9996)" fill="#C4C4C4" fill-opacity="0.5"/>
<circle cx="35" cy="79.9996" r="5" transform="rotate(90 35 79.9996)" fill="#C4C4C4" fill-opacity="0.5"/>
<circle cx="35" cy="94.9996" r="5" transform="rotate(90 35 94.9996)" fill="#C4C4C4" fill-opacity="0.5"/>
<circle cx="20" cy="4.99963" r="5" transform="rotate(90 20 4.99963)" fill="#C4C4C4" fill-opacity="0.5"/>
<circle cx="20" cy="19.9996" r="5" transform="rotate(90 20 19.9996)" fill="#C4C4C4" fill-opacity="0.5"/>
<circle cx="20" cy="34.9996" r="5" transform="rotate(90 20 34.9996)" fill="#C4C4C4" fill-opacity="0.5"/>
<circle cx="20" cy="49.9996" r="5" transform="rotate(90 20 49.9996)" fill="#C4C4C4" fill-opacity="0.5"/>
<circle cx="20" cy="64.9996" r="5" transform="rotate(90 20 64.9996)" fill="#C4C4C4" fill-opacity="0.5"/>
<circle cx="20" cy="79.9996" r="5" transform="rotate(90 20 79.9996)" fill="#C4C4C4" fill-opacity="0.5"/>
<circle cx="20" cy="94.9996" r="5" transform="rotate(90 20 94.9996)" fill="#C4C4C4" fill-opacity="0.5"/>
<circle cx="5" cy="4.99963" r="5" transform="rotate(90 5 4.99963)" fill="#C4C4C4" fill-opacity="0.5"/>
<circle cx="5" cy="19.9996" r="5" transform="rotate(90 5 19.9996)" fill="#C4C4C4" fill-opacity="0.5"/>
<circle cx="5" cy="34.9996" r="5" transform="rotate(90 5 34.9996)" fill="#C4C4C4" fill-opacity="0.5"/>
<circle cx="5" cy="49.9996" r="5" transform="rotate(90 5 49.9996)" fill="#C4C4C4" fill-opacity="0.5"/>
<circle cx="5" cy="64.9996" r="5" transform="rotate(90 5 64.9996)" fill="#C4C4C4" fill-opacity="0.5"/>
<circle cx="5" cy="79.9996" r="5" transform="rotate(90 5 79.9996)" fill="#C4C4C4" fill-opacity="0.5"/>
<circle cx="5" cy="94.9996" r="5" transform="rotate(90 5 94.9996)" fill="#C4C4C4" fill-opacity="0.5"/>
</svg>
