<svg width="225" height="431" viewBox="0 0 225 431" fill="none" xmlns="http://www.w3.org/2000/svg">
<rect width="130" height="80" fill="#FCD945"/>
<path d="M155 40L130 79.8372L130 0.162841L155 40Z" fill="#FCD945"/>
<path d="M42.2793 30H38.7549V23.1973C38.7549 22.3711 38.7725 21.6152 38.8076 20.9297C38.5908 21.1934 38.3213 21.4688 37.999 21.7559L36.54 22.96L34.7383 20.7451L39.1504 17.1504H42.2793V30ZM62.0371 33.6562H59.0312V30H52.4482V33.6562H49.4424V27.4424H50.3213C50.8311 26.5752 51.2588 25.4941 51.6045 24.1992C51.9561 22.8984 52.1992 21.5127 52.334 20.042H60.5605V27.4424H62.0371V33.6562ZM57.124 27.4424V22.5996H55.1641C55.0586 23.3906 54.915 24.1611 54.7334 24.9111C54.5518 25.6611 54.2881 26.5049 53.9424 27.4424H57.124ZM68.2598 30.1758C66.6016 30.1758 65.3125 29.7363 64.3926 28.8574C63.4785 27.9727 63.0215 26.7158 63.0215 25.0869C63.0215 23.4053 63.4463 22.1162 64.2959 21.2197C65.1455 20.3174 66.3584 19.8662 67.9346 19.8662C69.4346 19.8662 70.5918 20.2588 71.4062 21.0439C72.2266 21.8232 72.6367 22.9482 72.6367 24.4189V25.9482H66.4932C66.5166 26.5049 66.7188 26.9414 67.0996 27.2578C67.4863 27.5742 68.0107 27.7324 68.6729 27.7324C69.2764 27.7324 69.8301 27.6768 70.334 27.5654C70.8438 27.4482 71.3945 27.252 71.9863 26.9766V29.4463C71.4473 29.7217 70.8906 29.9121 70.3164 30.0176C69.7422 30.123 69.0566 30.1758 68.2598 30.1758ZM68.0576 22.2041C67.6533 22.2041 67.3135 22.333 67.0381 22.5908C66.7686 22.8428 66.6104 23.2412 66.5635 23.7861H69.5166C69.5049 23.3057 69.3672 22.9219 69.1035 22.6348C68.8457 22.3477 68.4971 22.2041 68.0576 22.2041ZM78.0156 20.042V23.6279H80.7402V20.042H84.1768V30H80.7402V26.1855H78.0156V30H74.5791V20.042H78.0156ZM89.9863 20.042V23.6279H90.3115C92.04 23.6279 93.291 23.8682 94.0645 24.3486C94.8379 24.8291 95.2246 25.6143 95.2246 26.7041C95.2246 27.8467 94.8525 28.6816 94.1084 29.209C93.3643 29.7363 92.2363 30 90.7246 30H86.5498V20.042H89.9863ZM91.7881 26.8535C91.7881 26.5078 91.6914 26.2588 91.498 26.1064C91.3047 25.9541 90.9824 25.8779 90.5312 25.8779H89.9863V27.75H90.5664C91.3809 27.75 91.7881 27.4512 91.7881 26.8535Z" fill="#1A1A16"/>
<path d="M24.2842 63H22.8604V53.8418C22.8604 53.0801 22.8838 52.3594 22.9307 51.6797C22.8076 51.8027 22.6699 51.9316 22.5176 52.0664C22.3652 52.2012 21.668 52.7725 20.4258 53.7803L19.6523 52.7783L23.0537 50.1504H24.2842V63ZM34.585 63H33.1611V53.8418C33.1611 53.0801 33.1846 52.3594 33.2314 51.6797C33.1084 51.8027 32.9707 51.9316 32.8184 52.0664C32.666 52.2012 31.9688 52.7725 30.7266 53.7803L29.9531 52.7783L33.3545 50.1504H34.585V63ZM39.9375 62.0684C39.9375 61.6758 40.0254 61.3799 40.2012 61.1807C40.3828 60.9756 40.6406 60.873 40.9746 60.873C41.3145 60.873 41.5781 60.9756 41.7656 61.1807C41.959 61.3799 42.0557 61.6758 42.0557 62.0684C42.0557 62.4492 41.959 62.7422 41.7656 62.9473C41.5723 63.1523 41.3086 63.2549 40.9746 63.2549C40.6758 63.2549 40.4268 63.1641 40.2275 62.9824C40.0342 62.7949 39.9375 62.4902 39.9375 62.0684ZM52.7959 56.5576C52.7959 58.7783 52.4443 60.4365 51.7412 61.5322C51.0439 62.6279 49.9746 63.1758 48.5332 63.1758C47.1504 63.1758 46.0986 62.6162 45.3779 61.4971C44.6572 60.3721 44.2969 58.7256 44.2969 56.5576C44.2969 54.3193 44.6455 52.6582 45.3428 51.5742C46.04 50.4902 47.1035 49.9482 48.5332 49.9482C49.9277 49.9482 50.9854 50.5137 51.7061 51.6445C52.4326 52.7754 52.7959 54.4131 52.7959 56.5576ZM45.7734 56.5576C45.7734 58.4268 45.9932 59.7891 46.4326 60.6445C46.8721 61.4941 47.5723 61.9189 48.5332 61.9189C49.5059 61.9189 50.209 61.4883 50.6426 60.627C51.082 59.7598 51.3018 58.4033 51.3018 56.5576C51.3018 54.7119 51.082 53.3613 50.6426 52.5059C50.209 51.6445 49.5059 51.2139 48.5332 51.2139C47.5723 51.2139 46.8721 51.6387 46.4326 52.4883C45.9932 53.332 45.7734 54.6885 45.7734 56.5576ZM56.2061 63L61.5322 51.4951H54.5273V50.1504H63.0791V51.3193L57.8232 63H56.2061ZM65.3379 62.0684C65.3379 61.6758 65.4258 61.3799 65.6016 61.1807C65.7832 60.9756 66.041 60.873 66.375 60.873C66.7148 60.873 66.9785 60.9756 67.166 61.1807C67.3594 61.3799 67.4561 61.6758 67.4561 62.0684C67.4561 62.4492 67.3594 62.7422 67.166 62.9473C66.9727 63.1523 66.709 63.2549 66.375 63.2549C66.0762 63.2549 65.8271 63.1641 65.6279 62.9824C65.4346 62.7949 65.3379 62.4902 65.3379 62.0684ZM78.126 63H69.6797V61.7432L73.0635 58.3418C74.0947 57.2988 74.7744 56.5547 75.1025 56.1094C75.4307 55.6641 75.6768 55.2305 75.8408 54.8086C76.0049 54.3867 76.0869 53.9326 76.0869 53.4463C76.0869 52.7607 75.8789 52.2188 75.4629 51.8203C75.0469 51.416 74.4697 51.2139 73.7314 51.2139C73.1982 51.2139 72.6914 51.3018 72.2109 51.4775C71.7363 51.6533 71.2061 51.9727 70.6201 52.4355L69.8467 51.4424C71.0303 50.458 72.3193 49.9658 73.7139 49.9658C74.9209 49.9658 75.8672 50.2764 76.5527 50.8975C77.2383 51.5127 77.5811 52.3418 77.5811 53.3848C77.5811 54.1992 77.3525 55.0049 76.8955 55.8018C76.4385 56.5986 75.583 57.6064 74.3291 58.8252L71.5166 61.5762V61.6465H78.126V63ZM88.4971 56.5576C88.4971 58.7783 88.1455 60.4365 87.4424 61.5322C86.7451 62.6279 85.6758 63.1758 84.2344 63.1758C82.8516 63.1758 81.7998 62.6162 81.0791 61.4971C80.3584 60.3721 79.998 58.7256 79.998 56.5576C79.998 54.3193 80.3467 52.6582 81.0439 51.5742C81.7412 50.4902 82.8047 49.9482 84.2344 49.9482C85.6289 49.9482 86.6865 50.5137 87.4072 51.6445C88.1338 52.7754 88.4971 54.4131 88.4971 56.5576ZM81.4746 56.5576C81.4746 58.4268 81.6943 59.7891 82.1338 60.6445C82.5732 61.4941 83.2734 61.9189 84.2344 61.9189C85.207 61.9189 85.9102 61.4883 86.3438 60.627C86.7832 59.7598 87.0029 58.4033 87.0029 56.5576C87.0029 54.7119 86.7832 53.3613 86.3438 52.5059C85.9102 51.6445 85.207 51.2139 84.2344 51.2139C83.2734 51.2139 82.5732 51.6387 82.1338 52.4883C81.6943 53.332 81.4746 54.6885 81.4746 56.5576ZM98.7275 63H90.2812V61.7432L93.665 58.3418C94.6963 57.2988 95.376 56.5547 95.7041 56.1094C96.0322 55.6641 96.2783 55.2305 96.4424 54.8086C96.6064 54.3867 96.6885 53.9326 96.6885 53.4463C96.6885 52.7607 96.4805 52.2188 96.0645 51.8203C95.6484 51.416 95.0713 51.2139 94.333 51.2139C93.7998 51.2139 93.293 51.3018 92.8125 51.4775C92.3379 51.6533 91.8076 51.9727 91.2217 52.4355L90.4482 51.4424C91.6318 50.458 92.9209 49.9658 94.3154 49.9658C95.5225 49.9658 96.4688 50.2764 97.1543 50.8975C97.8398 51.5127 98.1826 52.3418 98.1826 53.3848C98.1826 54.1992 97.9541 55.0049 97.4971 55.8018C97.04 56.5986 96.1846 57.6064 94.9307 58.8252L92.1182 61.5762V61.6465H98.7275V63ZM109.099 56.5576C109.099 58.7783 108.747 60.4365 108.044 61.5322C107.347 62.6279 106.277 63.1758 104.836 63.1758C103.453 63.1758 102.401 62.6162 101.681 61.4971C100.96 60.3721 100.6 58.7256 100.6 56.5576C100.6 54.3193 100.948 52.6582 101.646 51.5742C102.343 50.4902 103.406 49.9482 104.836 49.9482C106.23 49.9482 107.288 50.5137 108.009 51.6445C108.735 52.7754 109.099 54.4131 109.099 56.5576ZM102.076 56.5576C102.076 58.4268 102.296 59.7891 102.735 60.6445C103.175 61.4941 103.875 61.9189 104.836 61.9189C105.809 61.9189 106.512 61.4883 106.945 60.627C107.385 59.7598 107.604 58.4033 107.604 56.5576C107.604 54.7119 107.385 53.3613 106.945 52.5059C106.512 51.6445 105.809 51.2139 104.836 51.2139C103.875 51.2139 103.175 51.6387 102.735 52.4883C102.296 53.332 102.076 54.6885 102.076 56.5576Z" fill="#1A1A16"/>
<rect y="351" width="130" height="80" fill="#FCD945"/>
<path d="M155 391L130 430.837L130 351.163L155 391Z" fill="#FCD945"/>
<path d="M43.8613 381H34.5361V378.715L37.6738 375.542C38.5703 374.604 39.1562 373.966 39.4316 373.626C39.707 373.28 39.8975 372.984 40.0029 372.738C40.1143 372.492 40.1699 372.234 40.1699 371.965C40.1699 371.631 40.0615 371.367 39.8447 371.174C39.6279 370.98 39.3232 370.884 38.9307 370.884C38.5264 370.884 38.1162 371.001 37.7002 371.235C37.29 371.464 36.8242 371.804 36.3027 372.255L34.3955 370.022C35.0576 369.431 35.6143 369.009 36.0654 368.757C36.5166 368.499 37.0059 368.303 37.5332 368.168C38.0664 368.033 38.6641 367.966 39.3262 367.966C40.1582 367.966 40.8994 368.112 41.5498 368.405C42.2061 368.698 42.7129 369.117 43.0703 369.662C43.4336 370.201 43.6152 370.808 43.6152 371.481C43.6152 371.985 43.5508 372.451 43.4219 372.879C43.2988 373.307 43.1055 373.729 42.8418 374.145C42.5781 374.555 42.2266 374.988 41.7871 375.445C41.3535 375.902 40.4248 376.77 39.001 378.047V378.135H43.8613V381ZM62.0371 384.656H59.0312V381H52.4482V384.656H49.4424V378.442H50.3213C50.8311 377.575 51.2588 376.494 51.6045 375.199C51.9561 373.898 52.1992 372.513 52.334 371.042H60.5605V378.442H62.0371V384.656ZM57.124 378.442V373.6H55.1641C55.0586 374.391 54.915 375.161 54.7334 375.911C54.5518 376.661 54.2881 377.505 53.9424 378.442H57.124ZM68.2598 381.176C66.6016 381.176 65.3125 380.736 64.3926 379.857C63.4785 378.973 63.0215 377.716 63.0215 376.087C63.0215 374.405 63.4463 373.116 64.2959 372.22C65.1455 371.317 66.3584 370.866 67.9346 370.866C69.4346 370.866 70.5918 371.259 71.4062 372.044C72.2266 372.823 72.6367 373.948 72.6367 375.419V376.948H66.4932C66.5166 377.505 66.7188 377.941 67.0996 378.258C67.4863 378.574 68.0107 378.732 68.6729 378.732C69.2764 378.732 69.8301 378.677 70.334 378.565C70.8438 378.448 71.3945 378.252 71.9863 377.977V380.446C71.4473 380.722 70.8906 380.912 70.3164 381.018C69.7422 381.123 69.0566 381.176 68.2598 381.176ZM68.0576 373.204C67.6533 373.204 67.3135 373.333 67.0381 373.591C66.7686 373.843 66.6104 374.241 66.5635 374.786H69.5166C69.5049 374.306 69.3672 373.922 69.1035 373.635C68.8457 373.348 68.4971 373.204 68.0576 373.204ZM78.0156 371.042V374.628H80.7402V371.042H84.1768V381H80.7402V377.186H78.0156V381H74.5791V371.042H78.0156ZM89.9863 371.042V374.628H90.3115C92.04 374.628 93.291 374.868 94.0645 375.349C94.8379 375.829 95.2246 376.614 95.2246 377.704C95.2246 378.847 94.8525 379.682 94.1084 380.209C93.3643 380.736 92.2363 381 90.7246 381H86.5498V371.042H89.9863ZM91.7881 377.854C91.7881 377.508 91.6914 377.259 91.498 377.106C91.3047 376.954 90.9824 376.878 90.5312 376.878H89.9863V378.75H90.5664C91.3809 378.75 91.7881 378.451 91.7881 377.854Z" fill="#1A1A16"/>
<path d="M24.2842 414H22.8604V404.842C22.8604 404.08 22.8838 403.359 22.9307 402.68C22.8076 402.803 22.6699 402.932 22.5176 403.066C22.3652 403.201 21.668 403.772 20.4258 404.78L19.6523 403.778L23.0537 401.15H24.2842V414ZM37.626 414H29.1797V412.743L32.5635 409.342C33.5947 408.299 34.2744 407.555 34.6025 407.109C34.9307 406.664 35.1768 406.23 35.3408 405.809C35.5049 405.387 35.5869 404.933 35.5869 404.446C35.5869 403.761 35.3789 403.219 34.9629 402.82C34.5469 402.416 33.9697 402.214 33.2314 402.214C32.6982 402.214 32.1914 402.302 31.7109 402.478C31.2363 402.653 30.7061 402.973 30.1201 403.436L29.3467 402.442C30.5303 401.458 31.8193 400.966 33.2139 400.966C34.4209 400.966 35.3672 401.276 36.0527 401.897C36.7383 402.513 37.0811 403.342 37.0811 404.385C37.0811 405.199 36.8525 406.005 36.3955 406.802C35.9385 407.599 35.083 408.606 33.8291 409.825L31.0166 412.576V412.646H37.626V414ZM39.9375 413.068C39.9375 412.676 40.0254 412.38 40.2012 412.181C40.3828 411.976 40.6406 411.873 40.9746 411.873C41.3145 411.873 41.5781 411.976 41.7656 412.181C41.959 412.38 42.0557 412.676 42.0557 413.068C42.0557 413.449 41.959 413.742 41.7656 413.947C41.5723 414.152 41.3086 414.255 40.9746 414.255C40.6758 414.255 40.4268 414.164 40.2275 413.982C40.0342 413.795 39.9375 413.49 39.9375 413.068ZM52.7959 407.558C52.7959 409.778 52.4443 411.437 51.7412 412.532C51.0439 413.628 49.9746 414.176 48.5332 414.176C47.1504 414.176 46.0986 413.616 45.3779 412.497C44.6572 411.372 44.2969 409.726 44.2969 407.558C44.2969 405.319 44.6455 403.658 45.3428 402.574C46.04 401.49 47.1035 400.948 48.5332 400.948C49.9277 400.948 50.9854 401.514 51.7061 402.645C52.4326 403.775 52.7959 405.413 52.7959 407.558ZM45.7734 407.558C45.7734 409.427 45.9932 410.789 46.4326 411.645C46.8721 412.494 47.5723 412.919 48.5332 412.919C49.5059 412.919 50.209 412.488 50.6426 411.627C51.082 410.76 51.3018 409.403 51.3018 407.558C51.3018 405.712 51.082 404.361 50.6426 403.506C50.209 402.645 49.5059 402.214 48.5332 402.214C47.5723 402.214 46.8721 402.639 46.4326 403.488C45.9932 404.332 45.7734 405.688 45.7734 407.558ZM56.2061 414L61.5322 402.495H54.5273V401.15H63.0791V402.319L57.8232 414H56.2061ZM65.3379 413.068C65.3379 412.676 65.4258 412.38 65.6016 412.181C65.7832 411.976 66.041 411.873 66.375 411.873C66.7148 411.873 66.9785 411.976 67.166 412.181C67.3594 412.38 67.4561 412.676 67.4561 413.068C67.4561 413.449 67.3594 413.742 67.166 413.947C66.9727 414.152 66.709 414.255 66.375 414.255C66.0762 414.255 65.8271 414.164 65.6279 413.982C65.4346 413.795 65.3379 413.49 65.3379 413.068ZM78.126 414H69.6797V412.743L73.0635 409.342C74.0947 408.299 74.7744 407.555 75.1025 407.109C75.4307 406.664 75.6768 406.23 75.8408 405.809C76.0049 405.387 76.0869 404.933 76.0869 404.446C76.0869 403.761 75.8789 403.219 75.4629 402.82C75.0469 402.416 74.4697 402.214 73.7314 402.214C73.1982 402.214 72.6914 402.302 72.2109 402.478C71.7363 402.653 71.2061 402.973 70.6201 403.436L69.8467 402.442C71.0303 401.458 72.3193 400.966 73.7139 400.966C74.9209 400.966 75.8672 401.276 76.5527 401.897C77.2383 402.513 77.5811 403.342 77.5811 404.385C77.5811 405.199 77.3525 406.005 76.8955 406.802C76.4385 407.599 75.583 408.606 74.3291 409.825L71.5166 412.576V412.646H78.126V414ZM88.4971 407.558C88.4971 409.778 88.1455 411.437 87.4424 412.532C86.7451 413.628 85.6758 414.176 84.2344 414.176C82.8516 414.176 81.7998 413.616 81.0791 412.497C80.3584 411.372 79.998 409.726 79.998 407.558C79.998 405.319 80.3467 403.658 81.0439 402.574C81.7412 401.49 82.8047 400.948 84.2344 400.948C85.6289 400.948 86.6865 401.514 87.4072 402.645C88.1338 403.775 88.4971 405.413 88.4971 407.558ZM81.4746 407.558C81.4746 409.427 81.6943 410.789 82.1338 411.645C82.5732 412.494 83.2734 412.919 84.2344 412.919C85.207 412.919 85.9102 412.488 86.3438 411.627C86.7832 410.76 87.0029 409.403 87.0029 407.558C87.0029 405.712 86.7832 404.361 86.3438 403.506C85.9102 402.645 85.207 402.214 84.2344 402.214C83.2734 402.214 82.5732 402.639 82.1338 403.488C81.6943 404.332 81.4746 405.688 81.4746 407.558ZM98.7275 414H90.2812V412.743L93.665 409.342C94.6963 408.299 95.376 407.555 95.7041 407.109C96.0322 406.664 96.2783 406.23 96.4424 405.809C96.6064 405.387 96.6885 404.933 96.6885 404.446C96.6885 403.761 96.4805 403.219 96.0645 402.82C95.6484 402.416 95.0713 402.214 94.333 402.214C93.7998 402.214 93.293 402.302 92.8125 402.478C92.3379 402.653 91.8076 402.973 91.2217 403.436L90.4482 402.442C91.6318 401.458 92.9209 400.966 94.3154 400.966C95.5225 400.966 96.4688 401.276 97.1543 401.897C97.8398 402.513 98.1826 403.342 98.1826 404.385C98.1826 405.199 97.9541 406.005 97.4971 406.802C97.04 407.599 96.1846 408.606 94.9307 409.825L92.1182 412.576V412.646H98.7275V414ZM109.099 407.558C109.099 409.778 108.747 411.437 108.044 412.532C107.347 413.628 106.277 414.176 104.836 414.176C103.453 414.176 102.401 413.616 101.681 412.497C100.96 411.372 100.6 409.726 100.6 407.558C100.6 405.319 100.948 403.658 101.646 402.574C102.343 401.49 103.406 400.948 104.836 400.948C106.23 400.948 107.288 401.514 108.009 402.645C108.735 403.775 109.099 405.413 109.099 407.558ZM102.076 407.558C102.076 409.427 102.296 410.789 102.735 411.645C103.175 412.494 103.875 412.919 104.836 412.919C105.809 412.919 106.512 412.488 106.945 411.627C107.385 410.76 107.604 409.403 107.604 407.558C107.604 405.712 107.385 404.361 106.945 403.506C106.512 402.645 105.809 402.214 104.836 402.214C103.875 402.214 103.175 402.639 102.735 403.488C102.296 404.332 102.076 405.688 102.076 407.558Z" fill="#1A1A16"/>
<rect x="210" y="72" width="1" height="291" fill="#FCD945"/>
<rect x="206" y="76" width="1" height="291" fill="white"/>
<circle cx="207.091" cy="40.909" r="13.5909" stroke="white"/>
<circle cx="209.909" cy="38.0909" r="14.0909" fill="#FCD945"/>
<circle cx="208.091" cy="391.909" r="13.5909" stroke="white"/>
<circle cx="210.909" cy="389.091" r="14.0909" fill="#FCD945"/>
<circle cx="138" cy="127" r="5" transform="rotate(90 138 127)" fill="#999999"/>
<circle cx="138" cy="142" r="5" transform="rotate(90 138 142)" fill="#999999"/>
<circle cx="138" cy="157" r="5" transform="rotate(90 138 157)" fill="#999999"/>
<circle cx="138" cy="172" r="5" transform="rotate(90 138 172)" fill="#999999"/>
<circle cx="138" cy="187" r="5" transform="rotate(90 138 187)" fill="#999999"/>
<circle cx="138" cy="202" r="5" transform="rotate(90 138 202)" fill="#999999"/>
<circle cx="138" cy="217" r="5" transform="rotate(90 138 217)" fill="#999999"/>
<circle cx="123" cy="127" r="5" transform="rotate(90 123 127)" fill="#999999"/>
<circle cx="123" cy="142" r="5" transform="rotate(90 123 142)" fill="#999999"/>
<circle cx="123" cy="157" r="5" transform="rotate(90 123 157)" fill="#999999"/>
<circle cx="123" cy="172" r="5" transform="rotate(90 123 172)" fill="#999999"/>
<circle cx="123" cy="187" r="5" transform="rotate(90 123 187)" fill="#999999"/>
<circle cx="123" cy="202" r="5" transform="rotate(90 123 202)" fill="#999999"/>
<circle cx="123" cy="217" r="5" transform="rotate(90 123 217)" fill="#999999"/>
<circle cx="108" cy="127" r="5" transform="rotate(90 108 127)" fill="#999999"/>
<circle cx="108" cy="142" r="5" transform="rotate(90 108 142)" fill="#999999"/>
<circle cx="108" cy="157" r="5" transform="rotate(90 108 157)" fill="#999999"/>
<circle cx="108" cy="172" r="5" transform="rotate(90 108 172)" fill="#999999"/>
<circle cx="108" cy="187" r="5" transform="rotate(90 108 187)" fill="#999999"/>
<circle cx="108" cy="202" r="5" transform="rotate(90 108 202)" fill="#999999"/>
<circle cx="108" cy="217" r="5" transform="rotate(90 108 217)" fill="#999999"/>
<circle cx="93" cy="127" r="5" transform="rotate(90 93 127)" fill="#999999"/>
<circle cx="93" cy="142" r="5" transform="rotate(90 93 142)" fill="#999999"/>
<circle cx="93" cy="157" r="5" transform="rotate(90 93 157)" fill="#999999"/>
<circle cx="93" cy="172" r="5" transform="rotate(90 93 172)" fill="#999999"/>
<circle cx="93" cy="187" r="5" transform="rotate(90 93 187)" fill="#999999"/>
<circle cx="93" cy="202" r="5" transform="rotate(90 93 202)" fill="#999999"/>
<circle cx="93" cy="217" r="5" transform="rotate(90 93 217)" fill="#999999"/>
</svg>
