<svg width="99" height="676" viewBox="0 0 99 676" fill="none" xmlns="http://www.w3.org/2000/svg">
<path d="M68.166 608.655C74.0541 608.655 79.2927 610.149 83.8819 613.136C88.4278 616.124 91.9779 620.431 94.5323 626.06C97.0433 631.688 98.2989 638.29 98.2989 645.867C98.2989 652.188 97.8659 657.491 97 661.777C96.0909 666.063 94.5323 670.523 92.3242 675.155L69.4649 675.155C71.9759 670.263 73.9458 665.176 75.3745 659.894C76.76 654.612 77.4527 649.763 77.4527 645.347C77.4527 641.537 76.8033 638.745 75.5044 636.97C74.1623 635.195 72.4522 634.307 70.3741 634.307C69.0752 634.307 67.9496 634.675 66.9971 635.411C66.0013 636.104 65.0056 637.251 64.0098 638.853C63.014 640.412 60.9792 644.611 57.9053 651.452C55.0912 657.643 52.3636 662.297 49.7227 665.414C47.0817 668.488 44.0511 670.783 40.6309 672.298C37.2106 673.77 33.1626 674.506 28.4868 674.506C19.7414 674.506 12.9226 671.324 8.0303 664.959C3.13805 658.595 0.691924 649.85 0.691923 638.723C0.691923 628.895 2.96487 618.873 7.51077 608.655L27.3179 616.513C23.2482 625.389 21.2134 633.052 21.2134 639.502C21.2134 642.836 21.7979 645.261 22.9668 646.776C24.1358 648.291 25.5861 649.049 27.3179 649.049C29.1796 649.049 30.8464 648.096 32.3184 646.191C33.7904 644.243 36.4746 639.005 40.3711 630.476C44.0511 622.293 48.0126 616.621 52.2554 613.461C56.4549 610.257 61.7585 608.655 68.166 608.655ZM21.7329 551.702C21.7329 557.806 24.244 562.569 29.2661 565.989C34.245 569.409 41.1288 571.119 49.9175 571.119C68.1877 571.119 77.3228 564.17 77.3228 550.273C77.3228 546.073 76.7383 542.004 75.5694 538.064C74.4004 534.124 72.9934 530.163 71.3482 526.18L93.0386 526.18C96.5454 534.103 98.2989 543.064 98.2989 553.065C98.2989 567.396 94.1426 578.393 85.8301 586.056C77.5176 593.675 65.5034 597.485 49.7876 597.485C39.9598 597.485 31.3226 595.645 23.876 591.965C16.4294 588.242 10.7145 582.917 6.73147 575.99C2.7051 569.019 0.69192 560.837 0.691919 551.442C0.691919 541.181 2.92157 531.375 7.38088 522.023L27.5777 529.881C25.9325 533.388 24.5471 536.895 23.4214 540.402C22.2958 543.909 21.7329 547.675 21.7329 551.702ZM97 426.235L97 452.017L58.2949 452.017L58.2949 481.825L97 481.825L97 507.606L2.05569 507.606L2.05569 481.825L37.2539 481.825L37.2539 452.017L2.05568 452.017L2.05568 426.235L97 426.235ZM97 349.279L97 405.648L2.05568 405.648L2.05568 349.279L22.6421 349.279L22.6421 379.997L37.5786 379.997L37.5786 351.552L58.1651 351.552L58.1651 379.997L76.0889 379.997L76.0889 349.279L97 349.279ZM47.5147 252.062C63.3604 252.062 75.5693 256.435 84.1416 265.18C92.7139 273.882 97 286.135 97 301.937L97 332.654L2.05568 332.654L2.05568 299.794C2.05568 284.554 5.95216 272.8 13.7451 264.531C21.5381 256.218 32.7946 252.062 47.5147 252.062ZM48.4238 278.688C39.7217 278.688 33.2708 280.42 29.0713 283.883C24.8718 287.304 22.772 292.521 22.772 299.534L22.772 307.002L75.959 307.002L75.959 301.288C75.959 293.495 73.7077 287.78 69.2051 284.143C64.6592 280.506 57.7321 278.688 48.4238 278.688ZM2.05567 154.26L59.2041 154.26C71.6296 154.26 81.2625 157.789 88.103 164.846C94.9002 171.859 98.2988 181.99 98.2988 195.238C98.2988 208.183 94.9868 218.141 88.3628 225.111C81.7388 232.038 72.214 235.502 59.7886 235.502L2.05568 235.502L2.05567 209.72L57.7754 209.72C64.486 209.72 69.3566 208.465 72.3872 205.954C75.4178 203.443 76.9331 199.741 76.9331 194.849C76.9331 189.61 75.4395 185.822 72.4522 183.484C69.4216 181.103 64.486 179.912 57.6455 179.912L2.05567 179.912L2.05567 154.26ZM97 134.323L2.05567 134.323L2.05567 108.671L76.2837 108.671L76.2837 72.1094L97 72.1094L97 134.323ZM97 0.543939L97 56.9131L2.05567 56.9131L2.05566 0.543943L22.6421 0.543942L22.6421 31.2612L37.5786 31.2612L37.5786 2.81689L58.165 2.81689L58.165 31.2612L76.0889 31.2612L76.0889 0.54394L97 0.543939Z" fill="black" fill-opacity="0.4"/>
</svg>
