<svg width="99" height="582" viewBox="0 0 99 582" fill="none" xmlns="http://www.w3.org/2000/svg">
<path d="M68.166 514.655C74.054 514.655 79.2926 516.149 83.8818 519.136C88.4277 522.123 91.9779 526.431 94.5322 532.059C97.0433 537.687 98.2988 544.29 98.2988 551.866C98.2988 558.187 97.8659 563.491 97 567.777C96.0908 572.063 94.5322 576.522 92.3242 581.155L69.4648 581.155C71.9759 576.263 73.9458 571.176 75.3745 565.894C76.7599 560.612 77.4526 555.763 77.4526 551.347C77.4526 547.537 76.8032 544.744 75.5044 542.969C74.1623 541.194 72.4521 540.307 70.374 540.307C69.0752 540.307 67.9495 540.675 66.9971 541.411C66.0013 542.103 65.0055 543.251 64.0098 544.853C63.014 546.411 60.9792 550.611 57.9053 557.451C55.0911 563.642 52.3636 568.297 49.7227 571.414C47.0817 574.488 44.0511 576.782 40.6309 578.297C37.2106 579.769 33.1626 580.505 28.4868 580.505C19.7414 580.505 12.9225 577.323 8.03027 570.959C3.13802 564.595 0.691893 555.849 0.691893 544.723C0.691892 534.895 2.96484 524.872 7.51074 514.655L27.3179 522.513C23.2482 531.388 21.2134 539.051 21.2134 545.502C21.2134 548.836 21.7979 551.26 22.9668 552.776C24.1357 554.291 25.5861 555.048 27.3179 555.048C29.1795 555.048 30.8464 554.096 32.3184 552.191C33.7904 550.243 36.4746 545.004 40.3711 536.475C44.0511 528.293 48.0125 522.621 52.2554 519.461C56.4549 516.257 61.7585 514.655 68.166 514.655ZM32.2534 431.075C42.8605 431.075 51.0648 434.214 56.8662 440.492C62.6243 446.726 65.5034 455.602 65.5034 467.118L65.5034 474.326L97 474.326L97 499.978L2.05566 499.978L2.05566 467.118C2.05566 455.125 4.67496 446.12 9.91357 440.102C15.1522 434.084 22.5988 431.075 32.2534 431.075ZM44.5923 474.326L44.5923 469.651C44.5923 465.797 43.5099 462.745 41.3452 460.494C39.1805 458.199 36.1932 457.052 32.3833 457.052C25.9757 457.052 22.772 460.602 22.772 467.702L22.772 474.326L44.5923 474.326ZM97 359.575L97 415.944L2.05566 415.944L2.05565 359.575L22.6421 359.575L22.6421 390.292L37.5786 390.292L37.5786 361.848L58.165 361.848L58.165 390.292L76.0889 390.292L76.0889 359.575L97 359.575ZM97 284.697L79.206 289.373L79.206 320.22L97 325.026L97 353.211L1.666 322.234L1.666 288.009L97 256.643L97 284.697ZM58.165 294.698L42.5791 298.79C39.1155 299.742 34.6346 300.911 29.1362 302.297C23.6378 303.639 19.6981 304.526 17.3169 304.959C19.5249 305.349 23.1616 306.128 28.227 307.297C33.2925 308.423 43.2718 310.955 58.165 314.895L58.165 294.698ZM97 165.205L97 194.169L60.6977 212.937L65.2436 220.535L97 220.535L97 246.317L2.05565 246.317L2.05565 220.535L43.2934 220.535C40.7391 219.236 36.6911 216.617 31.1494 212.677L2.05565 192.74L2.05565 164.686L44.5923 194.624L97 165.205ZM97 98.5104L97 154.88L2.05565 154.88L2.05564 98.5104L22.6421 98.5104L22.6421 129.228L37.5786 129.228L37.5786 100.783L58.165 100.783L58.165 129.228L76.0888 129.228L76.0888 98.5104L97 98.5104ZM62.4511 56.2335L97 56.2335L97 81.8854L2.05564 81.8854L2.05564 50.7784C2.05564 24.9751 11.4072 12.0734 30.1103 12.0734C41.1071 12.0734 49.6144 17.4418 55.6323 28.1788L97 0.513788L97 29.6075L62.4511 49.7394L62.4511 56.2335ZM43.1636 56.2335L43.1636 51.4279C43.1636 42.4659 39.2021 37.985 31.2793 37.985C24.7418 37.985 21.4731 42.3794 21.4731 51.1681L21.4731 56.2335L43.1636 56.2335Z" fill="white" fill-opacity="0.4"/>
</svg>
