<svg width="35" height="35" viewBox="0 0 35 35" fill="none" xmlns="http://www.w3.org/2000/svg">
<path d="M5.0625 5.19531C8.48438 1.77344 12.6094 0.0625 17.4375 0.0625C22.2656 0.0625 26.3672 1.77344 29.7422 5.19531C33.1641 8.57031 34.875 12.6719 34.875 17.5C34.875 22.3281 33.1641 26.4531 29.7422 29.875C26.3672 33.25 22.2656 34.9375 17.4375 34.9375C12.6094 34.9375 8.48438 33.25 5.0625 29.875C1.6875 26.4531 0 22.3281 0 17.5C0 12.6719 1.6875 8.57031 5.0625 5.19531ZM26.0156 12.0156C26.1094 11.4531 26.0156 11.0547 25.7344 10.8203C25.5 10.5391 25.1953 10.4688 24.8203 10.6094L8.01562 17.1484C7.40625 17.3359 7.07812 17.5703 7.03125 17.8516C7.03125 18.1328 7.28906 18.3438 7.80469 18.4844L12.0938 19.8203L22.0781 13.5625C22.3594 13.375 22.5703 13.3516 22.7109 13.4922C22.7578 13.5391 22.7344 13.6094 22.6406 13.7031L14.5547 21.0156L14.2031 25.4453C14.5312 25.4453 14.8359 25.3047 15.1172 25.0234L17.2266 22.9844L21.5859 26.2188C22.4297 26.6875 22.9453 26.4531 23.1328 25.5156L26.0156 12.0156Z" fill="#FCD945"/>
</svg>
