<svg width="95" height="95" viewBox="0 0 95 95" fill="none" xmlns="http://www.w3.org/2000/svg">
<rect width="95" height="95" rx="10" fill="#FCD945"/>
<path d="M48 24.75C35.1562 24.75 24.75 35.1562 24.75 48C24.75 60.8438 35.1562 71.25 48 71.25C60.8438 71.25 71.25 60.8438 71.25 48C71.25 35.1562 60.8438 24.75 48 24.75ZM48 66.75C37.5938 66.75 29.25 58.4062 29.25 48C29.25 37.6875 37.5938 29.25 48 29.25C58.3125 29.25 66.75 37.6875 66.75 48C66.75 58.4062 58.3125 66.75 48 66.75ZM53.7188 57C54.2812 57.375 54.9375 57.2812 55.3125 56.7188L57.0938 54.375C57.4688 53.8125 57.375 53.1562 56.8125 52.7812L50.625 48.1875V34.875C50.625 34.3125 50.0625 33.75 49.5 33.75H46.5C45.8438 33.75 45.375 34.3125 45.375 34.875V50.3438C45.375 50.625 45.4688 51 45.75 51.1875L53.7188 57Z" fill="#615329"/>
</svg>
