<svg width="99" height="604" viewBox="0 0 99 604" fill="none" xmlns="http://www.w3.org/2000/svg">
<path d="M97 493.197L97 523.524L55.6323 532.616C53.9006 533.049 50.4587 533.742 45.3067 534.694C40.1546 535.604 35.8469 536.275 32.3833 536.708C35.1975 537.054 38.7043 537.617 42.9038 538.396C47.0601 539.175 50.8916 539.955 54.3985 540.734C57.9053 541.47 72.1058 544.609 97 550.15L97 580.478L2.05569 603.987L2.05569 579.244L49.6577 568.918C60.1782 566.581 68.5557 564.979 74.7901 564.113C70.374 563.55 64.3778 562.554 56.8013 561.125C49.2248 559.653 42.9471 558.29 37.9683 557.034L2.05569 548.657L2.05569 524.888L37.9683 516.771C43.7264 515.385 50.3721 513.978 57.9053 512.549C65.4385 511.121 71.0668 510.168 74.7901 509.692C69.9844 509.129 61.6503 507.592 49.7876 505.081L2.05569 494.561L2.05568 469.818L97 493.197ZM97 376.172L97 401.954L58.2949 401.954L58.2949 431.762L97 431.762L97 457.544L2.05568 457.544L2.05568 431.762L37.2539 431.762L37.2539 401.954L2.05568 401.954L2.05568 376.172L97 376.172ZM37.2539 321.687L2.05568 305.321L2.05568 277.526L59.9185 308.763L97 308.763L97 334.61L60.6978 334.61L2.05568 365.847L2.05568 337.922L37.2539 321.687ZM2.05567 151.995L59.2041 151.995C71.6296 151.995 81.2625 155.523 88.103 162.58C94.9002 169.594 98.2988 179.725 98.2988 192.973C98.2988 205.918 94.9868 215.875 88.3628 222.846C81.7388 229.773 72.214 233.236 59.7886 233.236L2.05567 233.236L2.05567 207.455L57.7754 207.455C64.486 207.455 69.3566 206.199 72.3872 203.688C75.4178 201.177 76.9331 197.475 76.9331 192.583C76.9331 187.344 75.4395 183.556 72.4522 181.218C69.4216 178.837 64.486 177.646 57.6455 177.646L2.05567 177.646L2.05567 151.995ZM68.166 69.9736C74.054 69.9736 79.2926 71.4673 83.8818 74.4546C88.4277 77.4419 91.9779 81.7497 94.5322 87.3779C97.0433 93.0062 98.2988 99.6086 98.2988 107.185C98.2988 113.506 97.8659 118.81 97 123.096C96.0908 127.382 94.5322 131.841 92.3242 136.474L69.4648 136.474C71.9759 131.581 73.9458 126.494 75.3745 121.212C76.7599 115.93 77.4526 111.082 77.4526 106.666C77.4526 102.856 76.8032 100.063 75.5044 98.2881C74.1623 96.513 72.4522 95.6255 70.374 95.6255C69.0752 95.6255 67.9495 95.9935 66.9971 96.7295C66.0013 97.4222 65.0055 98.5695 64.0098 100.171C63.014 101.73 60.9792 105.93 57.9053 112.77C55.0912 118.961 52.3636 123.615 49.7227 126.732C47.0817 129.806 44.0511 132.101 40.6309 133.616C37.2106 135.088 33.1626 135.824 28.4868 135.824C19.7414 135.824 12.9225 132.642 8.03028 126.278C3.13803 119.914 0.6919 111.168 0.691899 100.042C0.691899 90.2137 2.96485 80.1911 7.51075 69.9736L27.3179 77.8315C23.2482 86.7069 21.2134 94.37 21.2134 100.821C21.2134 104.154 21.7979 106.579 22.9668 108.094C24.1357 109.61 25.5861 110.367 27.3179 110.367C29.1795 110.367 30.8464 109.415 32.3184 107.51C33.7904 105.562 36.4746 100.323 40.3711 91.7939C44.0511 83.6113 48.0125 77.9398 52.2554 74.7793C56.4549 71.5755 61.7585 69.9736 68.166 69.9736ZM63.4902 46.3999L57.9053 46.3999C53.6624 46.3999 50.0907 45.534 47.1899 43.8022C44.2459 42.0705 41.3885 38.9966 38.6177 34.5806C36.4097 31.0737 34.4181 28.5627 32.6431 27.0474C30.868 25.4888 28.8332 24.7095 26.5386 24.7095C24.7202 24.7095 23.2915 25.5321 22.2524 27.1772C21.1701 28.8224 20.6289 30.9655 20.6289 33.6064C20.6289 40.1439 22.9452 47.7853 27.5776 56.5308L9.91358 65.5576C3.76579 54.7773 0.691897 43.5208 0.691896 31.7881C0.691896 22.1335 2.81331 14.557 7.05615 9.05859C11.299 3.56022 17.0788 0.811032 24.3955 0.811032C29.6341 0.811032 34.18 2.04492 38.0332 4.51269C41.8431 6.93717 45.4582 10.8337 48.8784 16.2021C51.8224 20.748 53.9871 23.6055 55.3726 24.7744C56.7147 25.9001 58.3166 26.4629 60.1782 26.4629L63.4902 26.4629L63.4902 46.3999ZM86.2197 49.1924C82.2367 49.1924 79.1628 48.0451 76.998 45.7505C74.8333 43.4126 73.751 39.9923 73.751 35.4897C73.751 31.1603 74.855 27.8483 77.063 25.5537C79.2277 23.2158 82.2799 22.0469 86.2197 22.0469C90.1595 22.0469 93.2118 23.2591 95.3765 25.6836C97.5412 28.0648 98.6235 31.3335 98.6235 35.4897C98.6235 39.7759 97.5628 43.1312 95.4414 45.5557C93.2767 47.9801 90.2028 49.1924 86.2197 49.1924Z" fill="black" fill-opacity="0.4"/>
</svg>
