<svg width="40" height="27" viewBox="0 0 40 27" fill="none" xmlns="http://www.w3.org/2000/svg">
<path d="M38.6016 4.28906C38.1797 2.60156 36.8438 1.26562 35.2266 0.84375C32.2031 0 20.25 0 20.25 0C20.25 0 8.22656 0 5.20312 0.84375C3.58594 1.26562 2.25 2.60156 1.82812 4.28906C0.984375 7.24219 0.984375 13.5703 0.984375 13.5703C0.984375 13.5703 0.984375 19.8281 1.82812 22.8516C2.25 24.5391 3.58594 25.8047 5.20312 26.2266C8.22656 27 20.25 27 20.25 27C20.25 27 32.2031 27 35.2266 26.2266C36.8438 25.8047 38.1797 24.5391 38.6016 22.8516C39.4453 19.8281 39.4453 13.5703 39.4453 13.5703C39.4453 13.5703 39.4453 7.24219 38.6016 4.28906ZM16.3125 19.2656V7.875L26.2969 13.5703L16.3125 19.2656Z" fill="#FCD945"/>
</svg>
